<svg xmlns="http://www.w3.org/2000/svg" shape-rendering="geometricPrecision" text-rendering="geometricPrecision" image-rendering="optimizeQuality" fill-rule="evenodd" clip-rule="evenodd" viewBox="0 0 512 512"><circle fill="#FBD433" transform="matrix(2.64389 -.70843 .70843 2.64389 256 256)" r="93.505"/><path fill="#40270E" d="M118.959 278.462c69.505-2.158 212.527 1.215 274.08-.171 0 165.703-274.08 181.545-274.08.171zm85.834-84.99c-30.555-23.781-59.738-23.427-87.565-.261-12.545 10.444-18.125 4.612-12.458-9.576 5.636-14.108 12.708-26.114 21.661-35.367 37.814-39.081 72.372-4.168 88.914 34.677 5.285 12.402 2.539 20.715-10.552 10.527zm191.566 0c-30.557-23.781-59.74-23.427-87.565-.261-12.544 10.444-18.127 4.612-12.46-9.576 5.636-14.108 12.708-26.114 21.661-35.367 37.814-39.081 72.371-4.168 88.917 34.677 5.282 12.402 2.535 20.715-10.553 10.527z"/><path fill="#fff" d="M118.959 278.462c69.506-6.316 212.527-2.806 274.08-.172.786 58.937-273.259 58.212-274.08.172z"/><path fill="red" d="M163.715 377.761c46.294 40.045 132.671 41.615 184.568 0-28.257-32.14-59.077-33.112-93.282-7.846-35.265-28.197-58.875-28.995-91.286 7.846z"/></svg>